<svg xmlns="http://www.w3.org/2000/svg" viewBox="0 0 305.41 99.51"><title>Ресурс 1</title><g id="Слой_2" data-name="Слой 2"><g fill="#fff" id="Слой_1-2" data-name="Слой 1"><path d="M41.27,92.45a6.82,6.82,0,0,1-2,5.09,7,7,0,0,1-5.12,2H7.06a6.88,6.88,0,0,1-5.09-2,6.89,6.89,0,0,1-2-5.09V0H8.84V91.69H32.43V0h8.84Z"/><path d="M109.61,52.9A6.86,6.86,0,0,1,102.49,60H79V99.51H70.18V0h32.3a7,7,0,0,1,5.12,2,6.82,6.82,0,0,1,2,5.09Zm-8.84-.76V7.82H79V52.14Z"/><path d="M168.41,99.51H136.62V0h8.84V91.69h23Z"/><path d="M234.52,81.52a17.29,17.29,0,0,1-5.18,12.94,18,18,0,0,1-13.07,5.05H193.51V0h22.76a17.92,17.92,0,0,1,13.1,5.06A17.35,17.35,0,0,1,234.52,18Zm-8.84-.89V18.76a10.59,10.59,0,0,0-3.08-7.92,10.93,10.93,0,0,0-8-3H202.35V91.69h11.76a11.86,11.86,0,0,0,8.36-3A10.48,10.48,0,0,0,225.69,80.63Z"/><path d="M305.41,99.51h-9.28l-18.5-53.28,1.21-1.78H294.6V7.82H271.9V99.51h-8.84V0h33.32a6.89,6.89,0,0,1,5.09,2,6.89,6.89,0,0,1,2,5.09V44.83q0,7.19-9.67,7.19-1,0-2.8-.1t-2.67-.1Q296.89,75.6,305.41,99.51Z"/></g></g></svg>
