<?xml version="1.0" encoding="iso-8859-1"?>
<!-- Generator: Adobe Illustrator 19.0.0, SVG Export Plug-In . SVG Version: 6.00 Build 0)  -->
<svg version="1.1" id="Capa_1" xmlns="http://www.w3.org/2000/svg" xmlns:xlink="http://www.w3.org/1999/xlink" x="0px" y="0px"
	 viewBox="0 0 512 512" style="enable-background:new 0 0 512 512;" xml:space="preserve">
<g>
	<path style="fill:#35495E;" d="M52.966,70.621h406.069c9.751,0,17.655,7.904,17.655,17.655v335.448H35.31V88.276
		C35.31,78.525,43.215,70.621,52.966,70.621z"/>
	<path style="fill:#95A5A5;" d="M0,388.414h512v26.483c0,14.626-11.857,26.483-26.483,26.483H26.483
		C11.857,441.379,0,429.523,0,414.897V388.414z"/>
	<path style="fill:#BDC3C7;" d="M326.621,388.414v8.828c-0.029,9.739-7.916,17.627-17.655,17.655H203.034
		c-9.739-0.029-17.627-7.916-17.655-17.655v-8.828"/>
	<path style="fill:#5E5F62;" d="M441.379,158.897v185.379c0,4.875-3.952,8.828-8.828,8.828h-291.31V158.897H441.379z"/>
	<path style="fill:#A5A5A4;" d="M141.241,158.897v194.207H79.448c-4.875,0-8.828-3.952-8.828-8.828V158.897H141.241z"/>
	<path style="fill:#D1D4D1;" d="M441.379,114.759v44.138H70.621v-44.138c0-4.875,3.952-8.828,8.828-8.828h353.103
		C437.427,105.931,441.379,109.883,441.379,114.759z"/>
	<path style="fill:#E64C3C;" d="M97.103,141.241c-3.569-0.014-6.782-2.168-8.151-5.464s-0.626-7.093,1.883-9.631
		c0.44-0.353,0.879-0.707,1.41-1.06c0.451-0.35,0.958-0.619,1.5-0.797c0.501-0.254,1.037-0.431,1.591-0.526
		c2.908-0.594,5.921,0.3,8.035,2.383c1.611,1.693,2.526,3.931,2.56,6.268c-0.016,0.591-0.075,1.18-0.177,1.763
		c-0.098,0.553-0.277,1.089-0.53,1.591c-0.194,0.563-0.462,1.098-0.797,1.591c-0.349,0.44-0.703,0.879-1.056,1.323
		C101.678,140.292,99.44,141.206,97.103,141.241z"/>
	<path style="fill:#46B29D;" d="M123.586,141.241c-2.337-0.035-4.575-0.949-6.268-2.56c-0.353-0.444-0.707-0.884-1.06-1.323
		c-0.335-0.492-0.603-1.027-0.797-1.591c-0.254-0.501-0.431-1.037-0.526-1.591c-0.104-0.582-0.162-1.172-0.176-1.763
		c0.033-2.337,0.947-4.576,2.56-6.268c0.827-0.818,1.819-1.451,2.909-1.858c3.298-1.294,7.046-0.57,9.626,1.858
		c1.611,1.693,2.525,3.931,2.56,6.268c-0.016,0.591-0.075,1.18-0.177,1.763c-0.098,0.553-0.277,1.089-0.53,1.591
		c-0.194,0.563-0.462,1.098-0.797,1.591c-0.325,0.462-0.678,0.904-1.056,1.324c-0.444,0.353-0.884,0.707-1.323,1.056
		c-0.492,0.335-1.027,0.603-1.591,0.797c-0.501,0.253-1.037,0.432-1.591,0.53C124.767,141.166,124.177,141.225,123.586,141.241z"/>
	<path style="fill:#F0C419;" d="M150.069,141.241c-2.348,0.023-4.607-0.9-6.267-2.56c-1.66-1.66-2.583-3.919-2.56-6.267
		c0.012-1.154,0.251-2.295,0.703-3.358c0.449-1.069,1.077-2.053,1.857-2.91c3.539-3.267,8.995-3.267,12.534,0
		c0.778,0.858,1.405,1.842,1.854,2.909c0.453,1.062,0.693,2.203,0.707,3.358c-0.035,2.337-0.949,4.574-2.56,6.268
		C154.653,140.307,152.409,141.223,150.069,141.241z"/>
	<g>
		<path style="fill:#D1D4D1;" d="M105.931,194.207c-3.569-0.014-6.782-2.168-8.151-5.464s-0.626-7.093,1.883-9.631
			c2.112-2.083,5.124-2.977,8.03-2.383c0.554,0.095,1.09,0.272,1.591,0.526c0.563,0.194,1.098,0.462,1.591,0.797
			c0.44,0.353,0.879,0.707,1.323,1.06c0.38,0.418,0.733,0.86,1.056,1.323c0.334,0.491,0.603,1.025,0.797,1.586
			c0.253,0.501,0.432,1.037,0.53,1.591c0.097,0.585,0.157,1.175,0.177,1.767c-0.016,0.591-0.075,1.18-0.177,1.763
			c-0.098,0.553-0.277,1.089-0.53,1.591c-0.194,0.563-0.462,1.098-0.797,1.591c-0.605,0.961-1.418,1.774-2.379,2.379
			c-0.492,0.335-1.027,0.603-1.591,0.797c-0.501,0.253-1.037,0.432-1.591,0.53C107.111,194.132,106.522,194.191,105.931,194.207z"/>
		<path style="fill:#D1D4D1;" d="M105.931,229.517c-3.569-0.014-6.782-2.168-8.151-5.464s-0.626-7.093,1.883-9.631
			c2.112-2.083,5.124-2.977,8.03-2.383c0.554,0.095,1.09,0.272,1.591,0.526c0.563,0.194,1.098,0.462,1.591,0.797
			c0.462,0.327,0.904,0.681,1.324,1.06c0.38,0.418,0.733,0.86,1.056,1.323c0.334,0.491,0.603,1.025,0.797,1.586
			c0.253,0.501,0.432,1.037,0.53,1.591c0.102,0.584,0.161,1.175,0.176,1.768c-0.02,0.591-0.079,1.18-0.177,1.763
			c-0.098,0.553-0.277,1.089-0.53,1.591c-0.194,0.563-0.462,1.098-0.797,1.591c-0.325,0.462-0.678,0.904-1.056,1.324
			C110.505,228.568,108.268,229.482,105.931,229.517z"/>
		<path style="fill:#D1D4D1;" d="M105.931,264.828c-4.007,0-7.513-2.693-8.548-6.563c-1.035-3.871,0.661-7.954,4.133-9.953
			c3.472-1.999,7.854-1.416,10.683,1.421c0.38,0.418,0.733,0.86,1.056,1.323c0.334,0.491,0.603,1.025,0.797,1.586
			c0.253,0.501,0.432,1.037,0.53,1.591c0.097,0.585,0.156,1.175,0.176,1.768c-0.016,0.591-0.075,1.18-0.177,1.763
			c-0.098,0.553-0.277,1.089-0.53,1.591c-0.194,0.563-0.462,1.098-0.797,1.591c-0.325,0.462-0.678,0.904-1.056,1.324
			C110.505,263.878,108.268,264.792,105.931,264.828z"/>
		<path style="fill:#D1D4D1;" d="M105.931,300.138c-2.337-0.035-4.575-0.949-6.268-2.56c-0.78-0.859-1.409-1.844-1.858-2.914
			c-0.937-2.139-0.937-4.572,0-6.711c0.427-1.08,1.058-2.068,1.858-2.91c3.539-3.267,8.995-3.267,12.534,0
			c0.778,0.858,1.405,1.842,1.854,2.909c0.495,1.049,0.738,2.199,0.707,3.358c0.023,2.348-0.9,4.607-2.56,6.267
			C110.538,299.238,108.279,300.161,105.931,300.138z"/>
		<path style="fill:#D1D4D1;" d="M105.931,335.448c-3.569-0.014-6.782-2.168-8.151-5.464s-0.626-7.093,1.883-9.631
			c2.112-2.083,5.124-2.977,8.03-2.383c0.554,0.095,1.09,0.272,1.591,0.526c0.563,0.194,1.098,0.462,1.591,0.797
			c0.44,0.353,0.879,0.707,1.323,1.06c1.612,1.693,2.526,3.931,2.561,6.267c-0.016,0.591-0.075,1.18-0.177,1.763
			c-0.098,0.553-0.277,1.089-0.53,1.591c-0.194,0.563-0.462,1.098-0.797,1.591c-0.325,0.462-0.678,0.904-1.056,1.324
			C110.505,334.499,108.268,335.413,105.931,335.448z"/>
	</g>
	<path style="fill:#D75E72;" d="M203.034,194.207h-26.483c-4.875,0-8.828-3.952-8.828-8.828c0-4.875,3.952-8.828,8.828-8.828h26.483
		c4.875,0,8.828,3.952,8.828,8.828C211.862,190.255,207.91,194.207,203.034,194.207z"/>
	<path style="fill:#F29C1F;" d="M264.828,194.207h-26.483c-4.875,0-8.828-3.952-8.828-8.828c0-4.875,3.952-8.828,8.828-8.828h26.483
		c4.875,0,8.828,3.952,8.828,8.828C273.655,190.255,269.703,194.207,264.828,194.207z"/>
	<g>
		<path style="fill:#ECF0F1;" d="M317.793,194.207h-17.655c-4.875,0-8.828-3.952-8.828-8.828c0-4.875,3.952-8.828,8.828-8.828
			h17.655c4.875,0,8.828,3.952,8.828,8.828C326.621,190.255,322.668,194.207,317.793,194.207z"/>
		<path style="fill:#ECF0F1;" d="M379.586,194.207h-26.483c-4.875,0-8.828-3.952-8.828-8.828c0-4.875,3.952-8.828,8.828-8.828
			h26.483c4.875,0,8.828,3.952,8.828,8.828C388.414,190.255,384.462,194.207,379.586,194.207z"/>
	</g>
	<path style="fill:#D75E72;" d="M203.034,264.828h-26.483c-4.875,0-8.828-3.952-8.828-8.828s3.952-8.828,8.828-8.828h26.483
		c4.875,0,8.828,3.952,8.828,8.828S207.91,264.828,203.034,264.828z"/>
	<path style="fill:#F29C1F;" d="M264.828,264.828h-26.483c-4.875,0-8.828-3.952-8.828-8.828s3.952-8.828,8.828-8.828h26.483
		c4.875,0,8.828,3.952,8.828,8.828S269.703,264.828,264.828,264.828z"/>
	<g>
		<path style="fill:#ECF0F1;" d="M317.793,264.828h-17.655c-4.875,0-8.828-3.952-8.828-8.828s3.952-8.828,8.828-8.828h17.655
			c4.875,0,8.828,3.952,8.828,8.828S322.668,264.828,317.793,264.828z"/>
		<path style="fill:#ECF0F1;" d="M379.586,264.828h-26.483c-4.875,0-8.828-3.952-8.828-8.828s3.952-8.828,8.828-8.828h26.483
			c4.875,0,8.828,3.952,8.828,8.828S384.462,264.828,379.586,264.828z"/>
	</g>
	<path style="fill:#D75E72;" d="M203.034,335.448h-26.483c-4.875,0-8.828-3.952-8.828-8.828s3.952-8.828,8.828-8.828h26.483
		c4.875,0,8.828,3.952,8.828,8.828S207.91,335.448,203.034,335.448z"/>
	<path style="fill:#F29C1F;" d="M264.828,335.448h-26.483c-4.875,0-8.828-3.952-8.828-8.828s3.952-8.828,8.828-8.828h26.483
		c4.875,0,8.828,3.952,8.828,8.828S269.703,335.448,264.828,335.448z"/>
	<g>
		<path style="fill:#ECF0F1;" d="M317.793,335.448h-17.655c-4.875,0-8.828-3.952-8.828-8.828s3.952-8.828,8.828-8.828h17.655
			c4.875,0,8.828,3.952,8.828,8.828S322.668,335.448,317.793,335.448z"/>
		<path style="fill:#ECF0F1;" d="M379.586,335.448h-26.483c-4.875,0-8.828-3.952-8.828-8.828s3.952-8.828,8.828-8.828h26.483
			c4.875,0,8.828,3.952,8.828,8.828S384.462,335.448,379.586,335.448z"/>
	</g>
	<g>
		<path style="fill:#F29C1F;" d="M229.517,229.517h-26.483c-4.875,0-8.828-3.952-8.828-8.828s3.952-8.828,8.828-8.828h26.483
			c4.875,0,8.828,3.952,8.828,8.828S234.393,229.517,229.517,229.517z"/>
		<path style="fill:#F29C1F;" d="M291.31,229.517h-26.483c-4.875,0-8.828-3.952-8.828-8.828s3.952-8.828,8.828-8.828h26.483
			c4.875,0,8.828,3.952,8.828,8.828S296.186,229.517,291.31,229.517z"/>
	</g>
	<g>
		<path style="fill:#ECF0F1;" d="M344.276,229.517h-17.655c-4.875,0-8.828-3.952-8.828-8.828s3.952-8.828,8.828-8.828h17.655
			c4.875,0,8.828,3.952,8.828,8.828S349.151,229.517,344.276,229.517z"/>
		<path style="fill:#ECF0F1;" d="M406.069,229.517h-26.483c-4.875,0-8.828-3.952-8.828-8.828s3.952-8.828,8.828-8.828h26.483
			c4.875,0,8.828,3.952,8.828,8.828S410.944,229.517,406.069,229.517z"/>
	</g>
	<g>
		<path style="fill:#F29C1F;" d="M229.517,300.138h-26.483c-4.875,0-8.828-3.952-8.828-8.828s3.952-8.828,8.828-8.828h26.483
			c4.875,0,8.828,3.952,8.828,8.828S234.393,300.138,229.517,300.138z"/>
		<path style="fill:#F29C1F;" d="M291.31,300.138h-26.483c-4.875,0-8.828-3.952-8.828-8.828s3.952-8.828,8.828-8.828h26.483
			c4.875,0,8.828,3.952,8.828,8.828S296.186,300.138,291.31,300.138z"/>
	</g>
	<g>
		<path style="fill:#ECF0F1;" d="M344.276,300.138h-17.655c-4.875,0-8.828-3.952-8.828-8.828s3.952-8.828,8.828-8.828h17.655
			c4.875,0,8.828,3.952,8.828,8.828S349.151,300.138,344.276,300.138z"/>
		<path style="fill:#ECF0F1;" d="M406.069,300.138h-26.483c-4.875,0-8.828-3.952-8.828-8.828s3.952-8.828,8.828-8.828h26.483
			c4.875,0,8.828,3.952,8.828,8.828S410.944,300.138,406.069,300.138z"/>
	</g>
</g>
<g>
</g>
<g>
</g>
<g>
</g>
<g>
</g>
<g>
</g>
<g>
</g>
<g>
</g>
<g>
</g>
<g>
</g>
<g>
</g>
<g>
</g>
<g>
</g>
<g>
</g>
<g>
</g>
<g>
</g>
</svg>
