<?xml version="1.0" encoding="iso-8859-1"?>
<!-- Generator: Adobe Illustrator 19.0.0, SVG Export Plug-In . SVG Version: 6.00 Build 0)  -->
<svg version="1.1" id="Layer_1" xmlns="http://www.w3.org/2000/svg" xmlns:xlink="http://www.w3.org/1999/xlink" x="0px" y="0px"
	 viewBox="0 0 488.8 488.8" style="enable-background:new 0 0 488.8 488.8;" xml:space="preserve">
<g>
	<g>
		<rect id="XMLID_393_" x="81.65" y="362" style="fill:#E64C3D;" width="117.6" height="117.6"/>
		<path style="fill:#fff;" d="M407.05,56.8h-127.3l21.8-21.8c3.5-3.5,3.5-9.3,0-12.8s-9.3-3.5-12.8,0l-37.3,37.2
			c-3.5,3.5-3.5,9.3,0,12.8l37.3,37.3c1.8,1.8,4.1,2.7,6.4,2.7s4.6-0.9,6.4-2.7c3.5-3.5,3.5-9.3,0-12.8l-21.8-21.8h118.2v336.9
			h-189.6v-49.7c0-5-4.1-9.1-9.1-9.1H81.65c-5,0-9.1,4.1-9.1,9.1v117.6c0,5,4.1,9.1,9.1,9.1h117.6c5,0,9.1-4.1,9.1-9.1V430h198.8
			c5,0,9.1-4.1,9.1-9.1v-355C416.15,60.8,412.05,56.8,407.05,56.8z M190.15,470.6h-99.5v-99.5h99.5V470.6z"/>
		<path style="fill:#fff;" d="M72.55,185.6v117.6c0,5,4.1,9.1,9.1,9.1h117.6c5,0,9.1-4.1,9.1-9.1V185.6c0-5-4.1-9.1-9.1-9.1
			H81.65C76.65,176.5,72.55,180.6,72.55,185.6z M90.65,194.7h99.5v99.5h-99.5C90.65,294.2,90.65,194.7,90.65,194.7z"/>
		<g>
			<path style="fill:#fff;" d="M199.25,117.7c-2.4,0-4.7,1-6.4,2.7s-2.7,4-2.7,6.4s1,4.7,2.7,6.4s4,2.7,6.4,2.7s4.7-1,6.4-2.7
				s2.7-4,2.7-6.4s-1-4.7-2.7-6.4C203.95,118.7,201.65,117.7,199.25,117.7z"/>
			<path style="fill:#fff;" d="M169.85,117.7c-5,0-9.1,4.1-9.1,9.1c0,5,4,9.1,9.1,9.1c5,0,9.1-4.1,9.1-9.1
				C178.95,121.8,174.85,117.7,169.85,117.7z"/>
			<path style="fill:#fff;" d="M111.05,117.7c-5,0-9.1,4.1-9.1,9.1c0,5,4.1,9.1,9.1,9.1s9.1-4.1,9.1-9.1
				C120.05,121.8,116.05,117.7,111.05,117.7z"/>
			<path style="fill:#fff;" d="M140.45,117.7c-5,0-9.1,4.1-9.1,9.1c0,5,4,9.1,9.1,9.1c5,0,9.1-4.1,9.1-9.1
				C149.45,121.8,145.45,117.7,140.45,117.7z"/>
			<path style="fill:#fff;" d="M81.65,117.7c-2.4,0-4.7,1-6.4,2.7c-1.7,1.7-2.7,4-2.7,6.4s1,4.7,2.7,6.4s4,2.7,6.4,2.7
				s4.7-1,6.4-2.7c1.7-1.7,2.7-4,2.7-6.4s-1-4.7-2.7-6.4C86.35,118.7,84.05,117.7,81.65,117.7z"/>
			<path style="fill:#fff;" d="M81.65,88.3c-5,0-9.1,4-9.1,9.1c0,5,4.1,9.1,9.1,9.1s9.1-4.1,9.1-9.1
				C90.65,92.4,86.65,88.3,81.65,88.3z"/>
			<path style="fill:#fff;" d="M81.65,29.5c-5,0-9.1,4.1-9.1,9.1s4.1,9.1,9.1,9.1s9.1-4.1,9.1-9.1
				C90.65,33.5,86.65,29.5,81.65,29.5z"/>
			<path style="fill:#fff;" d="M81.65,58.9c-5,0-9.1,4-9.1,9s4.1,9.1,9.1,9.1s9.1-4.1,9.1-9.1C90.65,63,86.65,58.9,81.65,58.9z"
				/>
			<path style="fill:#fff;" d="M81.65,0.1c-2.4,0-4.7,1-6.4,2.7c-1.7,1.7-2.7,4-2.7,6.4s1,4.7,2.7,6.4s4,2.7,6.4,2.7
				s4.7-1,6.4-2.7c1.7-1.7,2.6-4,2.6-6.4s-1-4.7-2.7-6.4C86.35,1.1,83.95,0.1,81.65,0.1z"/>
			<path style="fill:#fff;" d="M169.85,0.1c-5,0-9.1,4-9.1,9.1c0,5,4,9.1,9.1,9.1c5,0,9.1-4.1,9.1-9.1
				C178.95,4.1,174.85,0.1,169.85,0.1z"/>
			<path style="fill:#fff;" d="M111.05,0.1c-5,0-9.1,4-9.1,9.1c0,5,4,9.1,9.1,9.1c5,0,9.1-4.1,9.1-9.1
				C120.05,4.1,116.05,0.1,111.05,0.1z"/>
			<path style="fill:#fff;" d="M140.45,0.1c-5,0-9.1,4-9.1,9.1c0,5,4,9.1,9.1,9.1c5,0,9.1-4.1,9.1-9.1
				C149.45,4.1,145.45,0.1,140.45,0.1z"/>
			<path style="fill:#fff;" d="M199.25,18.2c2.4,0,4.7-1,6.4-2.7s2.7-4,2.7-6.4s-1-4.7-2.7-6.4s-4-2.7-6.4-2.7s-4.7,1-6.4,2.7
				s-2.7,4-2.7,6.4s1,4.7,2.7,6.4C194.55,17.3,196.85,18.2,199.25,18.2z"/>
			<path style="fill:#fff;" d="M199.25,88.3c-5,0-9.1,4-9.1,9s4,9.1,9.1,9.1c5,0,9.1-4.1,9.1-9.1
				C208.35,92.4,204.25,88.3,199.25,88.3z"/>
			<path style="fill:#fff;" d="M199.25,29.5c-5,0-9.1,4.1-9.1,9.1s4,9.1,9.1,9.1c5,0,9.1-4.1,9.1-9.1
				C208.35,33.5,204.25,29.5,199.25,29.5z"/>
			<path style="fill:#fff;" d="M199.25,58.9c-5,0-9.1,4-9.1,9.1c0,5,4,9.1,9.1,9.1c5,0,9.1-4.1,9.1-9.1S204.25,58.9,199.25,58.9z
				"/>
		</g>
	</g>
</g>
<g>
</g>
<g>
</g>
<g>
</g>
<g>
</g>
<g>
</g>
<g>
</g>
<g>
</g>
<g>
</g>
<g>
</g>
<g>
</g>
<g>
</g>
<g>
</g>
<g>
</g>
<g>
</g>
<g>
</g>
</svg>
